<svg width="279" height="183" viewBox="0 0 279 183" fill="none" xmlns="http://www.w3.org/2000/svg">
<circle cx="139" cy="67" r="67" fill="#CACACA"/>
<path d="M123.549 64.4638L113.38 36.1432C113.158 35.5096 112.858 35.0186 112.477 34.6702C112.129 34.29 111.638 34.0049 111.004 33.8148L109.864 33.4347V32.9595H123.549V33.4347L122.076 33.8623C121.347 34.0524 120.936 34.385 120.841 34.8602C120.777 35.3354 120.856 35.9215 121.078 36.6184L128.111 57.4787L135.191 36.5709C135.444 35.8423 135.555 35.2404 135.524 34.7652C135.524 34.29 135.159 33.9574 134.431 33.7673L133.195 33.4347V32.9595H139.848V33.4347L138.565 33.8148C137.963 33.9732 137.535 34.2583 137.282 34.6702C137.028 35.0503 136.791 35.5571 136.569 36.1907L127.065 64.4638H123.549ZM141.123 64.3213V63.8461L142.073 63.5135C142.707 63.3234 143.119 63.0383 143.309 62.6582C143.53 62.278 143.641 61.7712 143.641 61.1376V36.2382C143.641 35.6047 143.53 35.0978 143.309 34.7177C143.087 34.3375 142.659 34.0366 142.026 33.8148L141.123 33.4347V32.9595H152.67C157.39 32.9595 160.795 33.8307 162.886 35.573C165.009 37.2836 166.07 39.5487 166.07 42.368C166.07 44.1737 165.626 45.8368 164.739 47.3574C163.884 48.8463 162.458 50.0343 160.463 50.9213C158.467 51.8083 155.774 52.2518 152.385 52.2518H150.769V60.995C150.769 62.2305 151.387 63.0383 152.622 63.4184L154.048 63.8461V64.3213H141.123ZM150.769 51.3014H152.575C154.127 51.3014 155.394 51.048 156.376 50.5411C157.358 50.0343 158.087 49.1473 158.562 47.8801C159.037 46.613 159.275 44.8548 159.275 42.6056C159.275 40.3248 159.005 38.5508 158.467 37.2836C157.96 36.0165 157.2 35.1453 156.186 34.6702C155.172 34.1633 153.905 33.9099 152.385 33.9099H150.769V51.3014Z" fill="white"/>
<path d="M110.038 104.178V103.703L111.606 103.228C112.177 103.069 112.588 102.768 112.842 102.325C113.095 101.85 113.222 101.295 113.222 100.662V77.8056C112.874 77.0453 112.588 76.4751 112.367 76.0949C112.177 75.7148 111.955 75.398 111.701 75.1446C111.448 74.8595 111.1 74.511 110.656 74.0992L109.848 73.2914V72.8162H118.259L134.035 94.3418V76.4276C134.035 75.794 133.924 75.2238 133.702 74.7169C133.512 74.2101 133.1 73.8774 132.467 73.719L130.899 73.2914V72.8162H137.694V73.2914L136.411 73.719C135.84 73.9091 135.492 74.2417 135.365 74.7169C135.239 75.1921 135.175 75.7465 135.175 76.38V104.321H132.514L114.362 79.3737V100.662C114.362 101.295 114.457 101.834 114.648 102.277C114.838 102.721 115.234 103.038 115.835 103.228L117.261 103.703V104.178H110.038ZM140.001 104.178V103.703L140.951 103.37C141.585 103.18 141.997 102.895 142.187 102.515C142.408 102.135 142.519 101.628 142.519 100.994V76.0949C142.519 75.4614 142.408 74.9545 142.187 74.5744C141.965 74.1942 141.537 73.8933 140.904 73.6715L140.001 73.2914V72.8162H151.548C156.268 72.8162 159.673 73.6874 161.764 75.4297C163.887 77.1403 164.948 79.4053 164.948 82.2247C164.948 84.0304 164.504 85.6935 163.617 87.2141C162.762 88.703 161.336 89.8909 159.341 90.7779C157.345 91.6649 154.652 92.1084 151.263 92.1084H149.647V100.852C149.647 102.087 150.265 102.895 151.5 103.275L152.926 103.703V104.178H140.001ZM149.647 91.1581H151.453C153.005 91.1581 154.272 90.9047 155.254 90.3978C156.236 89.8909 156.965 89.0039 157.44 87.7368C157.915 86.4697 158.153 84.7115 158.153 82.4623C158.153 80.1815 157.883 78.4075 157.345 77.1403C156.838 75.8732 156.078 75.002 155.064 74.5268C154.05 74.02 152.783 73.7666 151.263 73.7666H149.647V91.1581Z" fill="white"/>
<path opacity="0.5" d="M3.82563 179H5.80563V164.1H1.00563V165.8H3.82563V179ZM12.8623 179H15.2223L19.4223 173.48C20.049 172.64 20.5023 171.84 20.7823 171.08C21.0623 170.32 21.2023 169.553 21.2023 168.78C21.2023 167.82 20.989 166.973 20.5623 166.24C20.149 165.493 19.569 164.913 18.8223 164.5C18.0757 164.073 17.2223 163.86 16.2623 163.86C15.329 163.86 14.489 164.067 13.7423 164.48C12.9957 164.893 12.409 165.467 11.9823 166.2C11.5557 166.92 11.3423 167.74 11.3423 168.66C11.3423 169.58 11.5423 170.4 11.9423 171.12C12.3557 171.827 12.909 172.387 13.6023 172.8C14.309 173.2 15.1023 173.4 15.9823 173.4C16.2357 173.4 16.4757 173.387 16.7023 173.36C16.929 173.32 17.1423 173.253 17.3423 173.16L12.8623 179ZM16.2623 171.68C15.7023 171.68 15.1957 171.553 14.7423 171.3C14.3023 171.033 13.9557 170.673 13.7023 170.22C13.449 169.767 13.3223 169.247 13.3223 168.66C13.3223 168.073 13.449 167.553 13.7023 167.1C13.969 166.633 14.3223 166.267 14.7623 166C15.2023 165.733 15.7023 165.6 16.2623 165.6C16.8357 165.6 17.3423 165.733 17.7823 166C18.2223 166.267 18.569 166.633 18.8223 167.1C19.089 167.553 19.2223 168.073 19.2223 168.66C19.2223 169.247 19.089 169.767 18.8223 170.22C18.569 170.673 18.2223 171.033 17.7823 171.3C17.3423 171.553 16.8357 171.68 16.2623 171.68ZM28.935 179H30.915V165.9H34.895V164.1H24.895V165.9H28.935V179ZM39.1842 179H41.1442V172.54H48.6042V179H50.5842V164.1H48.6042V170.74H41.1442V164.1H39.1842V179ZM62.1483 179H67.0283C68.5349 179 69.8483 178.687 70.9683 178.06C72.0883 177.433 72.9549 176.56 73.5683 175.44C74.1816 174.32 74.4883 173.02 74.4883 171.54C74.4883 170.047 74.1816 168.747 73.5683 167.64C72.9549 166.52 72.0883 165.653 70.9683 165.04C69.8483 164.413 68.5349 164.1 67.0283 164.1H62.1483V179ZM64.1083 177.2V165.9H67.0483C68.1416 165.9 69.0883 166.133 69.8883 166.6C70.7016 167.053 71.3283 167.7 71.7683 168.54C72.2216 169.38 72.4483 170.38 72.4483 171.54C72.4483 172.687 72.2283 173.687 71.7883 174.54C71.3483 175.393 70.7216 176.053 69.9083 176.52C69.1083 176.973 68.1549 177.2 67.0483 177.2H64.1083ZM79.3725 179H89.0725V177.2H81.3325V172.42H88.6725V170.62H81.3325V165.9H89.0725V164.1H79.3725V179ZM100.761 179.24C101.788 179.24 102.708 179.06 103.521 178.7C104.348 178.34 105.041 177.873 105.601 177.3C106.175 176.727 106.581 176.113 106.821 175.46L105.021 174.64C104.675 175.467 104.135 176.14 103.401 176.66C102.668 177.167 101.788 177.42 100.761 177.42C99.7214 177.42 98.7947 177.173 97.9814 176.68C97.1814 176.187 96.5547 175.5 96.1014 174.62C95.6481 173.74 95.4214 172.72 95.4214 171.56C95.4214 170.387 95.6481 169.36 96.1014 168.48C96.5547 167.6 97.1814 166.913 97.9814 166.42C98.7947 165.927 99.7214 165.68 100.761 165.68C101.788 165.68 102.668 165.94 103.401 166.46C104.135 166.967 104.675 167.633 105.021 168.46L106.821 167.64C106.581 166.987 106.175 166.373 105.601 165.8C105.041 165.227 104.348 164.76 103.521 164.4C102.708 164.04 101.788 163.86 100.761 163.86C99.7081 163.86 98.7347 164.053 97.8414 164.44C96.9614 164.813 96.1881 165.347 95.5214 166.04C94.8681 166.733 94.3614 167.547 94.0014 168.48C93.6414 169.413 93.4614 170.44 93.4614 171.56C93.4614 172.667 93.6414 173.693 94.0014 174.64C94.3614 175.573 94.8681 176.387 95.5214 177.08C96.1881 177.76 96.9614 178.293 97.8414 178.68C98.7347 179.053 99.7081 179.24 100.761 179.24ZM117.164 179H126.944V177.3H119.884L123.564 173.3C124.258 172.54 124.831 171.873 125.284 171.3C125.738 170.713 126.071 170.16 126.284 169.64C126.511 169.12 126.624 168.587 126.624 168.04C126.624 167.213 126.431 166.487 126.044 165.86C125.658 165.233 125.118 164.747 124.424 164.4C123.731 164.04 122.931 163.86 122.024 163.86C121.198 163.86 120.438 164.02 119.744 164.34C119.051 164.66 118.471 165.113 118.004 165.7C117.538 166.287 117.218 166.98 117.044 167.78L118.824 168.24C119.038 167.4 119.424 166.753 119.984 166.3C120.544 165.833 121.224 165.6 122.024 165.6C122.811 165.6 123.444 165.82 123.924 166.26C124.404 166.7 124.644 167.327 124.644 168.14C124.644 168.633 124.531 169.1 124.304 169.54C124.078 169.98 123.718 170.48 123.224 171.04C122.731 171.6 122.084 172.313 121.284 173.18L117.164 177.64V179ZM137.717 179.24C138.904 179.24 139.937 178.92 140.817 178.28C141.697 177.64 142.384 176.74 142.877 175.58C143.37 174.42 143.617 173.073 143.617 171.54C143.617 170.007 143.37 168.667 142.877 167.52C142.384 166.36 141.69 165.46 140.797 164.82C139.917 164.18 138.884 163.86 137.697 163.86C136.524 163.86 135.49 164.18 134.597 164.82C133.717 165.46 133.03 166.36 132.537 167.52C132.044 168.667 131.797 170.007 131.797 171.54C131.797 173.073 132.044 174.42 132.537 175.58C133.03 176.727 133.724 177.627 134.617 178.28C135.51 178.92 136.544 179.24 137.717 179.24ZM137.717 177.42C136.917 177.42 136.217 177.18 135.617 176.7C135.03 176.207 134.57 175.52 134.237 174.64C133.917 173.747 133.757 172.713 133.757 171.54C133.757 170.353 133.917 169.327 134.237 168.46C134.57 167.58 135.03 166.9 135.617 166.42C136.217 165.927 136.91 165.68 137.697 165.68C138.497 165.68 139.19 165.927 139.777 166.42C140.377 166.9 140.837 167.58 141.157 168.46C141.49 169.327 141.657 170.353 141.657 171.54C141.657 172.727 141.49 173.76 141.157 174.64C140.837 175.52 140.384 176.207 139.797 176.7C139.21 177.18 138.517 177.42 137.717 177.42ZM148.41 179H158.19V177.3H151.13L154.81 173.3C155.503 172.54 156.076 171.873 156.53 171.3C156.983 170.713 157.316 170.16 157.53 169.64C157.756 169.12 157.87 168.587 157.87 168.04C157.87 167.213 157.676 166.487 157.29 165.86C156.903 165.233 156.363 164.747 155.67 164.4C154.976 164.04 154.176 163.86 153.27 163.86C152.443 163.86 151.683 164.02 150.99 164.34C150.296 164.66 149.716 165.113 149.25 165.7C148.783 166.287 148.463 166.98 148.29 167.78L150.07 168.24C150.283 167.4 150.67 166.753 151.23 166.3C151.79 165.833 152.47 165.6 153.27 165.6C154.056 165.6 154.69 165.82 155.17 166.26C155.65 166.7 155.89 167.327 155.89 168.14C155.89 168.633 155.776 169.1 155.55 169.54C155.323 169.98 154.963 170.48 154.47 171.04C153.976 171.6 153.33 172.313 152.53 173.18L148.41 177.64V179ZM165.262 179H167.242V164.1H162.442V165.8H165.262V179ZM173.499 181.78C175.059 181.42 175.839 180.26 175.839 178.3V176.6H173.899V179H174.879C174.799 180.067 174.339 180.713 173.499 180.94V181.78ZM192.753 179.24C193.726 179.24 194.579 179.067 195.313 178.72C196.059 178.36 196.639 177.867 197.053 177.24C197.479 176.613 197.693 175.893 197.693 175.08C197.693 173.133 196.506 171.793 194.133 171.06L191.633 170.32C190.926 170.093 190.399 169.767 190.053 169.34C189.706 168.9 189.533 168.413 189.533 167.88C189.533 167.187 189.779 166.64 190.273 166.24C190.766 165.827 191.413 165.62 192.213 165.62C193.079 165.62 193.833 165.84 194.473 166.28C195.126 166.72 195.606 167.353 195.913 168.18L197.593 167.48C197.366 166.8 196.993 166.187 196.473 165.64C195.966 165.093 195.346 164.66 194.613 164.34C193.893 164.02 193.086 163.86 192.193 163.86C191.299 163.86 190.499 164.04 189.793 164.4C189.099 164.747 188.553 165.233 188.153 165.86C187.766 166.473 187.573 167.187 187.573 168C187.573 168.933 187.859 169.76 188.433 170.48C189.006 171.2 189.833 171.727 190.913 172.06L193.653 172.9C194.319 173.1 194.833 173.38 195.193 173.74C195.553 174.1 195.733 174.593 195.733 175.22C195.733 175.913 195.459 176.467 194.913 176.88C194.379 177.28 193.673 177.48 192.793 177.48C191.833 177.48 190.993 177.227 190.273 176.72C189.553 176.2 189.019 175.46 188.673 174.5L186.973 175.2C187.213 175.96 187.606 176.647 188.153 177.26C188.699 177.86 189.366 178.34 190.153 178.7C190.939 179.06 191.806 179.24 192.753 179.24ZM208.362 179.24C209.456 179.24 210.409 179.013 211.222 178.56C212.049 178.107 212.696 177.487 213.162 176.7C213.629 175.9 213.862 174.993 213.862 173.98V164.1H211.882V173.94C211.882 174.62 211.729 175.227 211.422 175.76C211.129 176.28 210.716 176.687 210.182 176.98C209.662 177.273 209.056 177.42 208.362 177.42C207.669 177.42 207.056 177.273 206.522 176.98C206.002 176.687 205.589 176.28 205.282 175.76C204.989 175.227 204.842 174.62 204.842 173.94V164.1H202.862V173.98C202.862 174.993 203.096 175.9 203.562 176.7C204.029 177.487 204.676 178.107 205.502 178.56C206.329 179.013 207.282 179.24 208.362 179.24ZM219.483 179H221.443V167.84L229.283 179H230.923V164.1H228.943V175.1L221.123 164.1H219.483V179ZM236.649 179H241.529C243.036 179 244.349 178.687 245.469 178.06C246.589 177.433 247.456 176.56 248.069 175.44C248.682 174.32 248.989 173.02 248.989 171.54C248.989 170.047 248.682 168.747 248.069 167.64C247.456 166.52 246.589 165.653 245.469 165.04C244.349 164.413 243.036 164.1 241.529 164.1H236.649V179ZM238.609 177.2V165.9H241.549C242.642 165.9 243.589 166.133 244.389 166.6C245.202 167.053 245.829 167.7 246.269 168.54C246.722 169.38 246.949 170.38 246.949 171.54C246.949 172.687 246.729 173.687 246.289 174.54C245.849 175.393 245.222 176.053 244.409 176.52C243.609 176.973 242.656 177.2 241.549 177.2H238.609ZM251.828 179H253.928L255.148 175.5H261.508L262.728 179H264.828L259.488 164.1H257.168L251.828 179ZM255.768 173.7L258.328 166.32L260.888 173.7H255.768ZM271.419 179H273.399V172.18L278.519 164.1H276.299L272.399 170.26L268.479 164.1H266.259L271.419 172.18V179Z" fill="#333333"/>
</svg>
