<svg width="279" height="183" viewBox="0 0 279 183" fill="none" xmlns="http://www.w3.org/2000/svg">
<circle cx="139" cy="67" r="67" fill="#CACACA"/>
<path d="M110.939 64.3213V63.8461L112.507 63.3709C113.077 63.2125 113.489 62.9116 113.742 62.4681C113.996 61.9929 114.122 61.4385 114.122 60.805V37.9489C113.774 37.1886 113.489 36.6184 113.267 36.2382C113.077 35.8581 112.855 35.5413 112.602 35.2879C112.348 35.0028 112 34.6543 111.556 34.2425L110.749 33.4347V32.9595H119.159L134.935 54.4851V36.5709C134.935 35.9373 134.824 35.3671 134.603 34.8602C134.413 34.3534 134.001 34.0207 133.367 33.8623L131.799 33.4347V32.9595H138.594V33.4347L137.311 33.8623C136.741 34.0524 136.392 34.385 136.266 34.8602C136.139 35.3354 136.076 35.8898 136.076 36.5233V64.4638H133.415L115.263 39.517V60.805C115.263 61.4385 115.358 61.9771 115.548 62.4206C115.738 62.8641 116.134 63.1809 116.736 63.3709L118.161 63.8461V64.3213H110.939ZM140.901 64.3213V63.8461L141.852 63.5135C142.485 63.3234 142.897 63.0383 143.087 62.6582C143.309 62.278 143.42 61.7712 143.42 61.1376V36.2382C143.42 35.6047 143.309 35.0978 143.087 34.7177C142.865 34.3375 142.438 34.0366 141.804 33.8148L140.901 33.4347V32.9595H152.448C157.168 32.9595 160.574 33.8307 162.664 35.573C164.787 37.2836 165.848 39.5487 165.848 42.368C165.848 44.1737 165.405 45.8368 164.518 47.3574C163.662 48.8463 162.237 50.0343 160.241 50.9213C158.245 51.8083 155.553 52.2518 152.163 52.2518H150.547V60.995C150.547 62.2305 151.165 63.0383 152.401 63.4184L153.826 63.8461V64.3213H140.901ZM150.547 51.3014H152.353C153.905 51.3014 155.172 51.048 156.155 50.5411C157.137 50.0343 157.865 49.1473 158.34 47.8801C158.816 46.613 159.053 44.8548 159.053 42.6056C159.053 40.3248 158.784 38.5508 158.245 37.2836C157.738 36.0165 156.978 35.1453 155.964 34.6702C154.951 34.1633 153.684 33.9099 152.163 33.9099H150.547V51.3014Z" fill="white"/>
<path d="M122.649 104.321L112.48 75.9999C112.258 75.3663 111.957 74.8753 111.577 74.5268C111.229 74.1467 110.738 73.8616 110.104 73.6715L108.964 73.2914V72.8162H122.649V73.2914L121.176 73.719C120.447 73.9091 120.035 74.2417 119.94 74.7169C119.877 75.1921 119.956 75.7781 120.178 76.4751L127.21 97.3354L134.291 76.4276C134.544 75.6989 134.655 75.0971 134.623 74.6219C134.623 74.1467 134.259 73.8141 133.53 73.624L132.295 73.2914V72.8162H138.947V73.2914L137.664 73.6715C137.062 73.8299 136.635 74.115 136.381 74.5268C136.128 74.907 135.89 75.4138 135.669 76.0474L126.165 104.321H122.649ZM140.222 104.178V103.703L141.173 103.37C141.806 103.18 142.218 102.895 142.408 102.515C142.63 102.135 142.741 101.628 142.741 100.994V76.0949C142.741 75.4614 142.63 74.9545 142.408 74.5744C142.187 74.1942 141.759 73.8933 141.125 73.6715L140.222 73.2914V72.8162H151.769C156.489 72.8162 159.895 73.6874 161.986 75.4297C164.108 77.1403 165.169 79.4053 165.169 82.2247C165.169 84.0304 164.726 85.6935 163.839 87.2141C162.984 88.703 161.558 89.8909 159.562 90.7779C157.566 91.6649 154.874 92.1084 151.484 92.1084H149.869V100.852C149.869 102.087 150.486 102.895 151.722 103.275L153.147 103.703V104.178H140.222ZM149.869 91.1581H151.674C153.227 91.1581 154.494 90.9047 155.476 90.3978C156.458 89.8909 157.186 89.0039 157.662 87.7368C158.137 86.4697 158.374 84.7115 158.374 82.4623C158.374 80.1815 158.105 78.4075 157.566 77.1403C157.06 75.8732 156.299 75.002 155.286 74.5268C154.272 74.02 153.005 73.7666 151.484 73.7666H149.869V91.1581Z" fill="white"/>
<path opacity="0.5" d="M3.82563 179H5.80563V164.1H1.00563V165.8H3.82563V179ZM12.8623 179H15.2223L19.4223 173.48C20.049 172.64 20.5023 171.84 20.7823 171.08C21.0623 170.32 21.2023 169.553 21.2023 168.78C21.2023 167.82 20.989 166.973 20.5623 166.24C20.149 165.493 19.569 164.913 18.8223 164.5C18.0757 164.073 17.2223 163.86 16.2623 163.86C15.329 163.86 14.489 164.067 13.7423 164.48C12.9957 164.893 12.409 165.467 11.9823 166.2C11.5557 166.92 11.3423 167.74 11.3423 168.66C11.3423 169.58 11.5423 170.4 11.9423 171.12C12.3557 171.827 12.909 172.387 13.6023 172.8C14.309 173.2 15.1023 173.4 15.9823 173.4C16.2357 173.4 16.4757 173.387 16.7023 173.36C16.929 173.32 17.1423 173.253 17.3423 173.16L12.8623 179ZM16.2623 171.68C15.7023 171.68 15.1957 171.553 14.7423 171.3C14.3023 171.033 13.9557 170.673 13.7023 170.22C13.449 169.767 13.3223 169.247 13.3223 168.66C13.3223 168.073 13.449 167.553 13.7023 167.1C13.969 166.633 14.3223 166.267 14.7623 166C15.2023 165.733 15.7023 165.6 16.2623 165.6C16.8357 165.6 17.3423 165.733 17.7823 166C18.2223 166.267 18.569 166.633 18.8223 167.1C19.089 167.553 19.2223 168.073 19.2223 168.66C19.2223 169.247 19.089 169.767 18.8223 170.22C18.569 170.673 18.2223 171.033 17.7823 171.3C17.3423 171.553 16.8357 171.68 16.2623 171.68ZM28.935 179H30.915V165.9H34.895V164.1H24.895V165.9H28.935V179ZM39.1842 179H41.1442V172.54H48.6042V179H50.5842V164.1H48.6042V170.74H41.1442V164.1H39.1842V179ZM62.1483 179H67.0283C68.5349 179 69.8483 178.687 70.9683 178.06C72.0883 177.433 72.9549 176.56 73.5683 175.44C74.1816 174.32 74.4883 173.02 74.4883 171.54C74.4883 170.047 74.1816 168.747 73.5683 167.64C72.9549 166.52 72.0883 165.653 70.9683 165.04C69.8483 164.413 68.5349 164.1 67.0283 164.1H62.1483V179ZM64.1083 177.2V165.9H67.0483C68.1416 165.9 69.0883 166.133 69.8883 166.6C70.7016 167.053 71.3283 167.7 71.7683 168.54C72.2216 169.38 72.4483 170.38 72.4483 171.54C72.4483 172.687 72.2283 173.687 71.7883 174.54C71.3483 175.393 70.7216 176.053 69.9083 176.52C69.1083 176.973 68.1549 177.2 67.0483 177.2H64.1083ZM79.3725 179H89.0725V177.2H81.3325V172.42H88.6725V170.62H81.3325V165.9H89.0725V164.1H79.3725V179ZM100.761 179.24C101.788 179.24 102.708 179.06 103.521 178.7C104.348 178.34 105.041 177.873 105.601 177.3C106.175 176.727 106.581 176.113 106.821 175.46L105.021 174.64C104.675 175.467 104.135 176.14 103.401 176.66C102.668 177.167 101.788 177.42 100.761 177.42C99.7214 177.42 98.7947 177.173 97.9814 176.68C97.1814 176.187 96.5547 175.5 96.1014 174.62C95.6481 173.74 95.4214 172.72 95.4214 171.56C95.4214 170.387 95.6481 169.36 96.1014 168.48C96.5547 167.6 97.1814 166.913 97.9814 166.42C98.7947 165.927 99.7214 165.68 100.761 165.68C101.788 165.68 102.668 165.94 103.401 166.46C104.135 166.967 104.675 167.633 105.021 168.46L106.821 167.64C106.581 166.987 106.175 166.373 105.601 165.8C105.041 165.227 104.348 164.76 103.521 164.4C102.708 164.04 101.788 163.86 100.761 163.86C99.7081 163.86 98.7347 164.053 97.8414 164.44C96.9614 164.813 96.1881 165.347 95.5214 166.04C94.8681 166.733 94.3614 167.547 94.0014 168.48C93.6414 169.413 93.4614 170.44 93.4614 171.56C93.4614 172.667 93.6414 173.693 94.0014 174.64C94.3614 175.573 94.8681 176.387 95.5214 177.08C96.1881 177.76 96.9614 178.293 97.8414 178.68C98.7347 179.053 99.7081 179.24 100.761 179.24ZM117.164 179H126.944V177.3H119.884L123.564 173.3C124.258 172.54 124.831 171.873 125.284 171.3C125.738 170.713 126.071 170.16 126.284 169.64C126.511 169.12 126.624 168.587 126.624 168.04C126.624 167.213 126.431 166.487 126.044 165.86C125.658 165.233 125.118 164.747 124.424 164.4C123.731 164.04 122.931 163.86 122.024 163.86C121.198 163.86 120.438 164.02 119.744 164.34C119.051 164.66 118.471 165.113 118.004 165.7C117.538 166.287 117.218 166.98 117.044 167.78L118.824 168.24C119.038 167.4 119.424 166.753 119.984 166.3C120.544 165.833 121.224 165.6 122.024 165.6C122.811 165.6 123.444 165.82 123.924 166.26C124.404 166.7 124.644 167.327 124.644 168.14C124.644 168.633 124.531 169.1 124.304 169.54C124.078 169.98 123.718 170.48 123.224 171.04C122.731 171.6 122.084 172.313 121.284 173.18L117.164 177.64V179ZM137.717 179.24C138.904 179.24 139.937 178.92 140.817 178.28C141.697 177.64 142.384 176.74 142.877 175.58C143.37 174.42 143.617 173.073 143.617 171.54C143.617 170.007 143.37 168.667 142.877 167.52C142.384 166.36 141.69 165.46 140.797 164.82C139.917 164.18 138.884 163.86 137.697 163.86C136.524 163.86 135.49 164.18 134.597 164.82C133.717 165.46 133.03 166.36 132.537 167.52C132.044 168.667 131.797 170.007 131.797 171.54C131.797 173.073 132.044 174.42 132.537 175.58C133.03 176.727 133.724 177.627 134.617 178.28C135.51 178.92 136.544 179.24 137.717 179.24ZM137.717 177.42C136.917 177.42 136.217 177.18 135.617 176.7C135.03 176.207 134.57 175.52 134.237 174.64C133.917 173.747 133.757 172.713 133.757 171.54C133.757 170.353 133.917 169.327 134.237 168.46C134.57 167.58 135.03 166.9 135.617 166.42C136.217 165.927 136.91 165.68 137.697 165.68C138.497 165.68 139.19 165.927 139.777 166.42C140.377 166.9 140.837 167.58 141.157 168.46C141.49 169.327 141.657 170.353 141.657 171.54C141.657 172.727 141.49 173.76 141.157 174.64C140.837 175.52 140.384 176.207 139.797 176.7C139.21 177.18 138.517 177.42 137.717 177.42ZM148.41 179H158.19V177.3H151.13L154.81 173.3C155.503 172.54 156.076 171.873 156.53 171.3C156.983 170.713 157.316 170.16 157.53 169.64C157.756 169.12 157.87 168.587 157.87 168.04C157.87 167.213 157.676 166.487 157.29 165.86C156.903 165.233 156.363 164.747 155.67 164.4C154.976 164.04 154.176 163.86 153.27 163.86C152.443 163.86 151.683 164.02 150.99 164.34C150.296 164.66 149.716 165.113 149.25 165.7C148.783 166.287 148.463 166.98 148.29 167.78L150.07 168.24C150.283 167.4 150.67 166.753 151.23 166.3C151.79 165.833 152.47 165.6 153.27 165.6C154.056 165.6 154.69 165.82 155.17 166.26C155.65 166.7 155.89 167.327 155.89 168.14C155.89 168.633 155.776 169.1 155.55 169.54C155.323 169.98 154.963 170.48 154.47 171.04C153.976 171.6 153.33 172.313 152.53 173.18L148.41 177.64V179ZM165.262 179H167.242V164.1H162.442V165.8H165.262V179ZM173.499 181.78C175.059 181.42 175.839 180.26 175.839 178.3V176.6H173.899V179H174.879C174.799 180.067 174.339 180.713 173.499 180.94V181.78ZM192.753 179.24C193.726 179.24 194.579 179.067 195.313 178.72C196.059 178.36 196.639 177.867 197.053 177.24C197.479 176.613 197.693 175.893 197.693 175.08C197.693 173.133 196.506 171.793 194.133 171.06L191.633 170.32C190.926 170.093 190.399 169.767 190.053 169.34C189.706 168.9 189.533 168.413 189.533 167.88C189.533 167.187 189.779 166.64 190.273 166.24C190.766 165.827 191.413 165.62 192.213 165.62C193.079 165.62 193.833 165.84 194.473 166.28C195.126 166.72 195.606 167.353 195.913 168.18L197.593 167.48C197.366 166.8 196.993 166.187 196.473 165.64C195.966 165.093 195.346 164.66 194.613 164.34C193.893 164.02 193.086 163.86 192.193 163.86C191.299 163.86 190.499 164.04 189.793 164.4C189.099 164.747 188.553 165.233 188.153 165.86C187.766 166.473 187.573 167.187 187.573 168C187.573 168.933 187.859 169.76 188.433 170.48C189.006 171.2 189.833 171.727 190.913 172.06L193.653 172.9C194.319 173.1 194.833 173.38 195.193 173.74C195.553 174.1 195.733 174.593 195.733 175.22C195.733 175.913 195.459 176.467 194.913 176.88C194.379 177.28 193.673 177.48 192.793 177.48C191.833 177.48 190.993 177.227 190.273 176.72C189.553 176.2 189.019 175.46 188.673 174.5L186.973 175.2C187.213 175.96 187.606 176.647 188.153 177.26C188.699 177.86 189.366 178.34 190.153 178.7C190.939 179.06 191.806 179.24 192.753 179.24ZM208.362 179.24C209.456 179.24 210.409 179.013 211.222 178.56C212.049 178.107 212.696 177.487 213.162 176.7C213.629 175.9 213.862 174.993 213.862 173.98V164.1H211.882V173.94C211.882 174.62 211.729 175.227 211.422 175.76C211.129 176.28 210.716 176.687 210.182 176.98C209.662 177.273 209.056 177.42 208.362 177.42C207.669 177.42 207.056 177.273 206.522 176.98C206.002 176.687 205.589 176.28 205.282 175.76C204.989 175.227 204.842 174.62 204.842 173.94V164.1H202.862V173.98C202.862 174.993 203.096 175.9 203.562 176.7C204.029 177.487 204.676 178.107 205.502 178.56C206.329 179.013 207.282 179.24 208.362 179.24ZM219.483 179H221.443V167.84L229.283 179H230.923V164.1H228.943V175.1L221.123 164.1H219.483V179ZM236.649 179H241.529C243.036 179 244.349 178.687 245.469 178.06C246.589 177.433 247.456 176.56 248.069 175.44C248.682 174.32 248.989 173.02 248.989 171.54C248.989 170.047 248.682 168.747 248.069 167.64C247.456 166.52 246.589 165.653 245.469 165.04C244.349 164.413 243.036 164.1 241.529 164.1H236.649V179ZM238.609 177.2V165.9H241.549C242.642 165.9 243.589 166.133 244.389 166.6C245.202 167.053 245.829 167.7 246.269 168.54C246.722 169.38 246.949 170.38 246.949 171.54C246.949 172.687 246.729 173.687 246.289 174.54C245.849 175.393 245.222 176.053 244.409 176.52C243.609 176.973 242.656 177.2 241.549 177.2H238.609ZM251.828 179H253.928L255.148 175.5H261.508L262.728 179H264.828L259.488 164.1H257.168L251.828 179ZM255.768 173.7L258.328 166.32L260.888 173.7H255.768ZM271.419 179H273.399V172.18L278.519 164.1H276.299L272.399 170.26L268.479 164.1H266.259L271.419 172.18V179Z" fill="#333333"/>
</svg>
